<svg width="24" height="24" viewBox="0 0 24 24" fill="none" xmlns="http://www.w3.org/2000/svg">
<path d="M19 4H5C4.20435 4 3.44129 4.33583 2.87868 4.9336C2.31607 5.53137 2 6.34212 2 7.1875V17.8125C2 18.6579 2.31607 19.4686 2.87868 20.0664C3.44129 20.6642 4.20435 21 5 21H19C19.7956 21 20.5587 20.6642 21.1213 20.0664C21.6839 19.4686 22 18.6579 22 17.8125V7.1875C22 6.34212 21.6839 5.53137 21.1213 4.9336C20.5587 4.33583 19.7956 4 19 4ZM18.59 6.125L12.71 12.3725C12.617 12.4721 12.5064 12.5511 12.3846 12.6051C12.2627 12.659 12.132 12.6868 12 12.6868C11.868 12.6868 11.7373 12.659 11.6154 12.6051C11.4936 12.5511 11.383 12.4721 11.29 12.3725L5.41 6.125H18.59ZM20 17.8125C20 18.0943 19.8946 18.3645 19.7071 18.5638C19.5196 18.7631 19.2652 18.875 19 18.875H5C4.73478 18.875 4.48043 18.7631 4.29289 18.5638C4.10536 18.3645 4 18.0943 4 17.8125V7.62312L9.88 13.8706C10.4425 14.4675 11.205 14.8028 12 14.8028C12.795 14.8028 13.5575 14.4675 14.12 13.8706L20 7.62312V17.8125Z" fill="url(#paint0_linear_290_3583)"/>
<defs>
<linearGradient id="paint0_linear_290_3583" x1="31.4" y1="-4.97225" x2="-2.03627" y2="-3.67559" gradientUnits="userSpaceOnUse">
<stop stop-color="#0048FE"/>
<stop offset="1" stop-color="#851D86"/>
</linearGradient>
</defs>
</svg>
